<svg version="1.2" xmlns="http://www.w3.org/2000/svg" viewBox="0 0 128 128" width="128" height="128">
	<title>Sanity</title>
	<style>
		.s0 { fill: #f03e2f } 
		.s1 { fill: #ffffff } 
		.s2 { fill: #f9b1ab } 
	</style>
	<path fill-rule="evenodd" class="s0" d="m64 0c35.3 0 64 28.7 64 64 0 35.3-28.7 64-64 64-35.3 0-64-28.7-64-64 0-35.3 28.7-64 64-64z"/>
	<path class="s1" d="m39.4 33.2c0 11 6.9 17.5 20.8 21l14.6 3.3c13.1 3 21.1 10.3 21.1 22.3 0.1 5.2-1.6 10.3-4.9 14.4 0-12-6.2-18.4-21.4-22.3l-14.4-3.2c-11.5-2.6-20.4-8.6-20.4-21.6-0.1-5 1.5-9.9 4.6-13.9z"/>
	<path class="s2" d="m82 76.8c6.3 4 9 9.5 9 17.3-5.2 6.6-14.3 10.2-24.9 10.2-18 0-30.6-8.7-33.4-23.8h17.2c2.3 6.9 8.2 10.2 16 10.2 9.6 0 16-5.1 16.1-13.9"/>
	<path class="s2" d="m48.4 49.5c-2.8-1.7-5.2-4.1-6.8-7-1.6-2.8-2.3-6.1-2.2-9.3 5-6.5 13.7-10.4 24.3-10.4 18.3 0 28.9 9.5 31.6 22.9h-16.7c-1.8-5.3-6.4-9.4-14.8-9.4-8.9 0-15 5.1-15.4 13.2"/>
</svg>